<svg width="60" height="60" viewBox="0 0 60 60" fill="none" xmlns="http://www.w3.org/2000/svg">
<circle cx="30" cy="30" r="30" fill="#008CDB"/>
<path d="M31.3223 29.0886C31.324 29.5147 31.1564 29.924 30.8563 30.2266C30.5561 30.529 30.1483 30.6997 29.7222 30.7014C29.2961 30.7031 28.8868 30.5355 28.5842 30.2353C28.2818 29.9352 28.1108 29.5274 28.1091 29.1013C28.1077 28.6751 28.2753 28.2659 28.5754 27.9632C28.8755 27.6609 29.2834 27.4899 29.7095 27.4882C30.1356 27.4865 30.5449 27.6544 30.8475 27.9545C31.1499 28.2546 31.3206 28.6625 31.3223 29.0886ZM23.926 27.4881C23.499 27.4865 23.0892 27.6549 22.7866 27.9559C22.4839 28.2569 22.3135 28.6658 22.3129 29.0928C22.3124 29.5195 22.4817 29.929 22.7835 30.2308C23.0853 30.5326 23.4948 30.7019 23.9218 30.7014C24.3485 30.7008 24.7577 30.5306 25.0587 30.228C25.3597 29.9254 25.5279 29.5153 25.5262 29.0886C25.5248 28.6647 25.3554 28.2586 25.0556 27.9588C24.7561 27.6592 24.3499 27.4899 23.926 27.4882L23.926 27.4881ZM35.4936 27.4881C35.0672 27.4881 34.6582 27.6577 34.357 27.9595C34.0554 28.2613 33.8864 28.6706 33.887 29.097C33.8875 29.5234 34.0577 29.9321 34.3598 30.233C34.6619 30.534 35.0714 30.7025 35.4978 30.7013C35.9242 30.7002 36.3329 30.5298 36.6333 30.2271C36.934 29.9248 37.1019 29.515 37.1002 29.0886C37.1002 28.663 36.9309 28.2552 36.6294 27.9548C36.3279 27.6544 35.9192 27.4865 35.4937 27.4882L35.4936 27.4881ZM23.1577 43.8318L29.0801 40.146H39.3494C40.4255 40.146 41.4575 39.7185 42.2184 38.9576C42.9795 38.1968 43.407 37.1646 43.407 36.0884V22.0575C43.4053 20.9819 42.9772 19.9508 42.2167 19.1903C41.4562 18.4298 40.425 18.0017 39.3495 18H20.0573C18.9816 18.0017 17.9505 18.4298 17.19 19.1903C16.4295 19.9508 16.0017 20.982 16 22.0575V36.1071C16.0048 37.1798 16.4346 38.2071 17.1948 38.964C17.9554 39.7206 18.9845 40.1456 20.0573 40.1456H21.2355V42.7414C21.2358 43.0415 21.3435 43.3321 21.5387 43.5599C21.7342 43.788 22.0048 43.9388 22.3013 43.9849C22.598 44.0313 22.9015 43.97 23.1572 43.8125L23.1577 43.8318ZM39.3624 20.5202C39.7699 20.5202 40.1612 20.6822 40.4495 20.9705C40.7378 21.2588 40.8995 21.6498 40.8995 22.0577V36.1072C40.8948 36.5114 40.7305 36.8976 40.4428 37.182C40.155 37.4664 39.7669 37.6256 39.3624 37.6256H28.7338C28.5 37.6258 28.2708 37.6914 28.0722 37.8146L23.7564 40.4796V38.8856C23.7564 38.5515 23.6236 38.2308 23.3874 37.9946C23.1511 37.7583 22.8305 37.6256 22.4963 37.6256H20.058C19.6505 37.6256 19.2592 37.4635 18.9709 37.1752C18.6826 36.8869 18.5209 36.496 18.5209 36.0881V22.0573C18.5209 21.6494 18.6826 21.2584 18.9709 20.9701C19.2592 20.6818 19.6504 20.5198 20.058 20.5198L39.3624 20.5202Z" fill="white"/>
</svg>
