<svg width="1110" height="288" viewBox="0 0 1110 288" fill="none" xmlns="http://www.w3.org/2000/svg">
<mask id="mask0_600_10284" style="mask-type:alpha" maskUnits="userSpaceOnUse" x="0" y="0" width="1110" height="288">
<rect width="1110" height="288" rx="12" fill="#C4C4C4"/>
</mask>
<g mask="url(#mask0_600_10284)">
<path opacity="0.1" d="M37.6741 206.021C131.436 114.763 260.651 221.404 363.056 149.184C416.337 111.608 427.142 77.7 465.377 21.6461C489.901 -14.3073 492.238 -20.5663 515.514 -46.2817C538.79 -71.9971 581 -101.733 581 -101.733V-196H-521V431.985H-258.034C-258.034 431.985 -117.582 434.95 -50.3222 357.126C-9.41394 309.793 -10.3232 252.737 37.6741 206.021Z" fill="white"/>
<path opacity="0.1" d="M-0.325928 184.081C93.4357 92.8095 222.651 223.036 325.056 150.805C378.337 113.224 406.23 -19.9636 421.749 -59.3244C430.252 -80.892 443.237 -100.303 464.326 -115.4C485.416 -130.497 543 -123.719 543 -123.719V-218H-559V370.64H-312.406C-312.406 370.64 -139.483 378.189 -83.2062 324.116C-34.0919 276.925 -48.3232 230.803 -0.325928 184.081Z" fill="white"/>
</g>
</svg>
