<svg width="54" height="54" viewBox="0 0 54 54" fill="none" xmlns="http://www.w3.org/2000/svg">
<path fill-rule="evenodd" clip-rule="evenodd" d="M1.00006 3H2.00006H51.176H52.176V4V50.0033V51.0033H51.176H2.00006H1.00006V50.0033V4V3ZM3.00006 5V9.34532H13.6906V5H3.00006ZM15.6906 5V9.34532H50.176V5H15.6906ZM3.00006 49.0033V11.3453H50.176V49.0033H3.00006Z" fill="#1C2034"/>
<path d="M45.624 16.6904H7.55231V27.7947H45.624V16.6904Z" stroke="#138B44" stroke-width="2" stroke-miterlimit="10"/>
<path fill-rule="evenodd" clip-rule="evenodd" d="M6.55237 32.7432H7.55237H17.0703H18.0703V33.7432V43.2611V44.2611H17.0703H7.55237H6.55237V43.2611V33.7432V32.7432ZM8.55237 34.7432V42.2611H16.0703V34.7432H8.55237ZM20.8291 32.7432H21.8291H31.347H32.347V33.7432V43.2611V44.2611H31.347H21.8291H20.8291V43.2611V33.7432V32.7432ZM22.8291 34.7432V42.2611H30.347V34.7432H22.8291ZM36.1061 32.7432H35.1061V33.7432V43.2611V44.2611H36.1061H45.624H46.624V43.2611V33.7432V32.7432H45.624H36.1061ZM37.1061 42.2611V34.7432H44.624V42.2611H37.1061Z" fill="#C79939"/>
</svg>
